<?xml version="1.0" encoding="UTF-8"?>
<!DOCTYPE svg PUBLIC "-//W3C//DTD SVG 1.1//EN" "http://www.w3.org/Graphics/SVG/1.1/DTD/svg11.dtd">
<!-- Creator: CorelDRAW X6 -->
<svg xmlns="http://www.w3.org/2000/svg" xml:space="preserve" width="102mm" height="108.586mm" version="1.1" style="shape-rendering:geometricPrecision; text-rendering:geometricPrecision; image-rendering:optimizeQuality; fill-rule:evenodd; clip-rule:evenodd"
viewBox="0 0 2952 3143"
 xmlns:xlink="http://www.w3.org/1999/xlink">
 <defs>
  <style type="text/css">
   <![CDATA[
    .fil8 {fill:#009846}
    .fil7 {fill:#393185}
    .fil5 {fill:#EF7F1A}
    .fil6 {fill:#FEFEFE}
    .fil4 {fill:#225520}
    .fil3 {fill:#3E8937}
    .fil2 {fill:#59BB50}
    .fil1 {fill:#75EB68}
    .fil0 {fill:#006CB5}
   ]]>
  </style>
 </defs>
 <g id="Layer_x0020_1">
  <metadata id="CorelCorpID_0Corel-Layer"/>
  <g id="_1348208560">
   <circle class="fil0" cx="1476" cy="1667" r="1476"/>
   <g>
    <path class="fil1" d="M1864 1334c0,-9 7,-27 17,-27 10,0 32,29 9,35 -20,5 -13,5 -19,2 -4,-2 -7,-4 -7,-10zm-343 15c21,11 35,10 45,23 42,56 38,59 -13,50 -40,-8 -23,-12 -69,-12 -11,0 -41,20 -49,20 -18,0 -33,-13 -37,-27 45,-30 10,-12 33,-70 5,-11 5,-18 16,-21 10,15 1,13 9,25 15,21 37,14 42,9 6,-7 2,-11 3,-21 1,-9 4,-10 9,-16 5,-8 5,-11 16,-12 2,11 9,15 9,22 0,10 -13,14 -14,30zm264 171c-10,0 -29,-2 -35,-6 -2,-1 -18,-19 -19,-21 -7,-13 15,-55 15,-58 0,-13 -20,-22 -37,-49 -11,-19 -5,-63 4,-70l38 -21c8,5 8,10 17,12 0,8 -2,9 -5,15 0,0 -3,5 -4,6 -10,12 -24,16 -27,27 -3,17 27,32 36,48 9,14 31,77 33,92 2,8 -7,25 -16,25zm613 -406c-4,-7 -3,-9 -3,-20 0,-11 6,-13 11,-19 8,-9 4,-12 12,-18 0,33 1,7 -13,42 -4,10 1,9 -7,15zm-963 -209c0,-27 52,15 10,25l-10 -25zm56 -34l5 0c4,14 9,4 10,20 -12,-1 -15,-7 -15,-20zm-179 34c0,15 7,29 13,37 46,0 65,-18 83,-19 6,26 0,15 -6,26 -5,10 4,5 -6,13 -5,-19 -45,-24 -54,-10 -20,28 7,32 7,54 0,12 -8,7 -13,3 -28,-22 -24,3 -37,29 -11,23 -4,21 -1,34 -15,10 -10,18 -22,27 -13,-9 4,-10 -27,-10 -17,0 -27,17 -44,17 -2,-7 -4,-9 -8,-14 -14,1 -22,11 -34,14 -7,-12 -10,-11 -12,-17 -4,-8 0,-6 3,-4 11,5 6,10 18,4 12,-5 -1,-4 15,-5 27,-1 11,-1 36,-21 38,-32 22,-65 37,-78 4,-4 28,-10 28,-50 0,-25 -15,-12 -15,-47 0,-14 32,-54 46,-65 3,-2 18,-15 18,-18 0,-19 -11,-5 1,-30 7,-14 7,-18 26,-19 3,6 5,7 5,17 -13,3 -17,13 -21,26 -11,37 -15,26 -27,46 -4,7 -5,10 -3,20 5,34 -6,26 -6,40zm231 -156l0 0zm0 0l-6 7c23,37 -3,17 -29,15 -2,5 -4,9 -4,17 -10,-3 -13,-12 -12,-22 2,-21 1,-9 -3,-27 14,0 16,3 26,8 15,8 12,2 28,2zm282 -199c22,6 30,50 40,62 14,15 39,-2 45,21 -4,-1 -27,-13 -27,-2 0,22 13,26 13,44 0,11 -2,32 -5,39 -18,-1 -5,-2 -5,-34 0,-47 -15,-40 -30,-66 -11,-20 3,-15 -23,-48 -5,-6 -7,-7 -8,-16zm-740 600l-8 11 11 14c11,5 6,5 6,5 1,4 2,9 3,10l29 37c0,0 1,1 1,1l5 6c4,6 9,8 15,16 4,5 2,3 4,6l8 10c0,0 0,1 1,1l75 73c9,7 4,3 10,11l31 29c9,7 6,2 11,5 6,4 2,5 9,9 6,4 6,1 13,8l35 25c7,5 2,-3 8,10 3,-6 1,-5 7,-8 -2,8 -1,14 8,18l24 11c5,2 7,3 10,5 1,1 4,3 5,3 5,4 4,6 12,9l60 30c0,0 0,0 1,0l17 8c0,0 1,1 1,1l7 4c9,3 2,2 9,4 4,1 9,1 10,1 13,3 1,5 23,12l34 12c1,0 1,0 2,1l30 6c7,2 0,0 2,5l57 14c0,0 1,0 1,0l9 3c2,1 3,3 7,4l25 4c5,1 1,0 6,1l6 2c8,1 2,0 13,-1 14,-2 3,-2 14,4 7,4 2,0 13,2l63 7c9,0 11,1 15,3l56 0c6,-1 1,0 5,-1 15,-2 8,4 24,1 11,-2 5,3 18,0l11 -1c0,0 0,1 1,1 1,0 24,0 25,0l10 -3c2,0 5,0 6,0l11 -3c0,0 1,0 1,0l5 0c3,1 11,1 17,2l29 -5c19,0 -8,-4 12,-5 9,-1 0,3 7,1l5 -8c7,8 6,9 18,4l19 -7c9,-2 6,3 14,0 5,-2 4,-2 9,-4l14 -2c5,-1 -1,1 4,-1l12 -4c1,0 4,-1 5,-2l41 -12c5,-3 1,-2 8,-3l26 -9c4,-3 5,1 15,-4l5 -3c8,-3 -2,1 4,-1 4,-2 4,-2 8,-4l4 -1c0,0 1,-1 1,-1 1,0 1,0 2,0l8 -5c1,-1 1,-1 1,-1l29 -11c1,0 1,0 2,-1l9 -3c0,0 1,-1 1,-1l20 -10c0,0 1,0 1,0l4 -2c0,0 1,-1 1,-1l24 -14c13,-8 9,0 21,-13 4,-4 4,-2 8,-3l44 -27c0,0 3,-2 3,-2 4,-2 2,-2 4,-2 1,-1 1,-1 2,-1 0,0 0,0 1,0l5 -3c5,-4 4,-2 7,-7 6,-12 -3,-7 13,-10 5,-1 11,-7 13,-9l21 -19c0,-1 0,-1 0,-2 1,0 2,-1 4,-1 0,0 5,1 6,1 -1,-1 -1,-3 -1,-3l26 -21c0,0 0,-1 1,-1 0,0 0,-1 0,-1 1,0 1,-1 1,-1l19 -17c6,-4 3,-1 9,-6l20 -22c1,0 1,-1 1,-1 0,0 1,0 1,-1l8 -8c0,0 2,-1 3,-1 8,-7 14,-17 21,-25 1,-1 1,-1 1,-1 1,-1 1,-1 1,-1l17 -20c3,-2 5,-2 9,-7l8 -11c3,-7 4,-5 6,-7l26 -33c0,-24 5,-34 -5,-62 -3,-10 -5,-15 -10,-24 -17,-34 -10,-9 -19,-51 -8,-37 -25,-44 -42,-69 -7,5 -5,1 -8,10 -6,-4 -21,-22 -24,-29 -6,-12 2,-17 -8,-48 -5,-14 -4,-33 -9,-46 -2,-8 -8,-16 3,-19 12,-3 15,11 19,-5 10,3 10,8 22,2 8,-16 -5,-20 -12,-30 -3,-5 -11,-26 -13,-33 16,1 16,12 22,23l29 59c14,36 1,19 28,60 21,31 36,66 55,99 4,6 4,9 8,15 6,11 20,17 16,-2 -4,-17 -14,-32 -18,-49 -3,-17 -11,-30 -19,-47 -6,-12 -4,-21 -11,-32 -26,-42 -35,-46 -54,-81 -4,-8 -15,-21 -17,-27 -7,-19 11,-9 1,-30l-50 -83c-9,-10 -26,-22 -33,-33 -10,-15 18,5 -48,-60 -36,-37 -39,-33 -72,-60 -15,-13 -64,-51 -84,-46 0,10 1,12 -2,19 -16,-1 -30,-19 -43,-26 -43,-24 -19,11 -67,-26 -24,-18 -30,-11 -49,-20 -13,-5 -13,-4 -30,-4 0,14 11,23 20,32 4,4 7,5 9,10 -12,6 -16,-4 -17,12 -31,-16 -49,-52 -84,-62 -16,-5 -43,-17 -36,-1 4,8 12,10 15,19 -22,0 -24,-20 -47,-19 -16,0 -4,6 -23,1 -36,-9 -18,0 -41,-25 -27,-29 -6,-19 -54,-47 -14,-9 -24,-19 -41,-25 -14,-5 -36,-2 -54,-12 -7,-4 -10,-10 -18,-14 -27,-14 -20,9 -2,24 4,3 6,4 10,7 7,6 3,1 8,10l-10 10c1,7 2,5 4,10 3,6 1,4 0,10 -2,13 -1,0 2,12 2,8 0,9 1,16 3,19 26,25 27,42 -32,9 -9,36 0,49 -10,1 -4,0 -12,5l5 12c3,9 2,3 0,13 -11,-7 -9,-16 -22,-20l0 24c-11,-2 -7,-5 -11,-16 -2,-6 -7,-12 -11,-16 -8,-10 -19,-20 -37,-12 -8,16 12,27 12,42 0,23 -11,18 3,46 6,12 8,7 14,15 9,12 11,26 24,36 8,6 10,6 11,18 -12,-8 -24,-15 -35,-24 -15,-11 -21,-15 -46,-15 -28,-41 -33,-2 -8,23 6,6 13,11 8,21 -7,-5 -6,-5 -8,-15 -12,1 -11,4 -21,8l-20 12c-5,-7 -5,-12 -15,-12 -12,-1 -24,14 -33,20 -18,14 -5,35 -17,38 -19,7 -4,-30 -31,-48 -12,6 -17,12 -17,31 -1,26 10,12 12,37 -12,8 -4,8 -24,8 -5,8 -3,11 -15,12 10,-18 10,-16 8,-40 -4,-31 -14,-27 -32,-44 -40,-38 -31,-15 -50,-24 -8,-3 -1,2 -7,-8l-5 -9c-12,1 -25,8 -29,-8 6,-9 16,-2 11,-15 -5,-15 -31,-13 -39,-20 -11,-10 -1,-9 -21,-9 -3,5 -4,5 -7,11 -9,16 -14,6 -23,16 0,1 -6,11 -7,13 -16,-1 -24,-5 -36,10 -8,10 -12,22 -26,26 -13,3 -14,4 -22,14 -3,4 -4,4 -7,8 -19,29 15,15 18,15 -6,23 -28,21 -36,40 -7,16 -11,46 -23,53 -12,7 -13,3 -20,17 -4,9 -7,23 -12,28 -21,29 -55,13 -72,79 -3,11 -1,23 -1,36 -1,15 -7,16 -11,28 -6,16 9,45 27,45 26,0 30,-20 47,-32 5,20 2,13 -2,31 -5,31 41,30 -25,65 1,-18 26,-43 15,-54 -11,-5 -12,-4 -19,3 -4,3 -4,3 -8,6 -18,14 -11,29 -16,59 -2,14 8,37 -11,42 -13,3 -12,-2 -16,13 -4,13 -1,13 -13,16z"/>
    <path class="fil2" d="M839 1599c6,11 3,12 15,5l5 14c1,3 0,8 4,10 4,3 4,0 8,-4l17 24c1,0 1,1 1,1 6,6 11,7 14,16 0,0 1,-1 1,0 2,9 2,-1 2,-1l7 3c14,13 0,10 12,23 12,-4 1,1 5,-8 9,8 16,20 27,23 2,6 -3,0 12,12 4,4 9,7 10,19 15,-9 -6,-3 8,-7 0,0 0,1 0,1 0,1 0,2 0,2 6,9 27,10 21,26 1,0 2,-1 2,0 0,0 1,-1 1,-1 5,-2 5,-1 14,1 -4,5 0,3 -7,5 4,2 8,1 12,4l6 5c6,2 -4,-2 4,1l12 8c11,7 17,8 17,24 10,-6 4,-10 10,-5 5,3 0,-1 2,4 0,1 0,3 1,4 2,6 6,8 11,12l7 3c6,-1 4,2 5,-6l6 12c0,1 1,0 1,0 2,8 -3,-7 9,0 1,0 17,5 19,16l1 4c3,1 1,-2 4,-3 4,-1 5,-1 11,4 2,1 4,2 5,3l18 14c7,6 5,-1 13,6l7 10c16,-5 -10,7 4,-2 1,0 4,-3 9,0 10,6 3,6 19,10 -1,12 -3,6 1,10 9,8 3,-6 17,1 6,3 8,6 13,5 11,0 -8,-2 3,0 9,2 -1,-1 2,1 13,11 -8,-4 3,3 6,3 4,-3 9,6 0,1 0,1 0,2l2 4c0,-1 1,-2 1,-1l9 0c13,17 3,5 25,11l36 19c0,0 0,0 1,0l2 2c0,0 1,0 1,0l15 3c9,1 10,-2 17,12 3,-3 3,4 3,-10 3,3 1,1 3,4 1,0 1,0 2,1l4 2c0,1 1,1 1,1l5 2c1,1 3,1 3,1 4,2 0,-2 3,2 4,4 2,2 1,9 5,-3 6,-4 10,-9l9 7c9,4 3,2 4,4 3,6 -8,1 4,6l3 -10c6,2 3,2 10,8 5,4 3,-6 4,7 0,0 1,-2 1,-1l6 -7 0 13c3,-4 3,3 3,-10l18 9c5,4 3,2 6,8 7,-2 3,1 6,-5l9 0c3,9 10,6 18,7 0,0 2,0 2,0 2,0 -2,-4 2,0 2,2 1,4 2,10 7,-3 9,-5 17,-7l-8 9c6,1 8,2 10,2 10,0 3,-5 12,-5l13 4c18,5 16,15 21,5 16,0 6,2 16,9 11,-2 5,-4 12,-4 9,1 7,12 35,12l2 -5c0,-17 -15,-24 -27,-32 -18,-12 -21,-3 -34,-25 -10,-17 -8,-26 -14,-44 -9,-28 -26,-13 -32,-30 -5,-14 -2,-38 -3,-56 0,-13 -3,-11 -10,-19 -17,-16 -17,-43 -27,-62 -6,-12 -24,-22 -14,-41 9,-5 16,-2 24,2 5,23 -2,31 14,47 13,14 33,38 35,58 3,35 -7,21 15,49 5,7 8,12 14,18 5,6 10,9 15,15 38,41 0,98 64,95 22,-1 27,-12 49,-15 69,-9 24,-15 82,-43 34,-17 16,-11 33,-31 19,-23 35,-3 41,-13 1,-2 1,-18 3,-25 17,-48 31,-38 27,-69 -3,-20 -25,-18 -40,-23 -27,-11 -10,-20 -31,-33 -9,6 -38,50 -56,17 -4,-8 -8,-16 -16,-19 -26,-10 -1,-6 -29,-37 -4,-5 -11,-13 -11,-20 1,-15 14,-28 25,-11 4,7 3,8 8,14 25,31 45,38 91,38 2,6 12,23 15,30 69,0 35,23 101,3 34,-10 25,-26 54,8 15,17 15,5 13,34 -1,11 10,20 18,27 15,14 21,4 32,-4l13 85c7,29 31,4 24,71 -1,18 14,16 17,31 2,13 -11,51 22,46 16,-2 22,-25 39,-37 0,-13 1,-22 5,-34 8,-18 -3,-38 0,-56 2,-11 4,-7 12,-11 9,-4 11,-15 17,-25 10,-17 13,0 23,-15 9,-13 10,-28 25,-37 10,-5 7,0 11,-11 5,-13 4,-18 10,-31 19,0 13,12 29,4 10,-5 14,-13 23,-19 4,10 6,15 8,28 6,27 26,20 18,53 -4,19 -7,49 20,30 5,-4 8,-7 14,-8 4,-1 6,0 7,6 3,9 1,18 2,27 8,58 -5,49 -6,107 0,21 -3,20 9,31 10,8 5,18 12,30 7,12 2,18 7,32 3,8 9,20 17,24 11,-7 17,-18 12,-34 -6,-22 5,-21 7,-42 -9,-13 -14,-5 -19,-23 -3,-11 -5,-25 -10,-33 -11,-16 -6,-11 -3,-30 2,-14 2,-26 5,-39l8 0c4,21 8,19 18,34 9,13 6,24 13,38 24,-2 29,-18 37,-35 4,-8 6,-8 10,-15 12,-18 15,-50 17,-78 -7,-9 -5,0 -9,-11 -3,-10 3,-9 -4,-18 -7,-10 -12,-2 -17,-24 -5,-18 12,-52 23,-60 8,6 6,16 20,11 14,-5 12,-24 37,-37 35,-17 19,-21 35,-36 15,-13 21,0 20,-53 0,-24 15,-37 9,-60 -4,-17 -7,-12 1,-28 6,-11 9,-15 0,-26 -12,-14 -5,-10 -7,-30 -1,-9 -7,-19 -11,-27 -6,-11 -11,-10 -11,-25 -1,-32 22,-24 15,-54 -23,-5 -24,4 -40,-7 0,-15 5,-36 8,-49l5 0c1,17 -2,30 17,34 4,-8 5,-17 14,-19 4,8 2,6 4,16 2,13 16,27 21,38 9,19 -3,55 20,61 7,-6 5,-10 19,-20 0,-24 1,-31 -4,-49 -11,-37 -15,-30 -26,-55 -5,-11 -4,-9 -1,-19 3,-8 4,-15 4,-24 0,-8 -1,-19 3,-27 8,-16 16,1 23,-52 3,-22 2,-44 -6,-63l-26 33c-2,2 -3,0 -6,7l-8 11c-4,5 -6,5 -9,7l-17 20c0,0 0,0 -1,1 0,0 0,0 -1,1 -7,8 -13,18 -21,25 -1,0 -3,1 -3,1l-8 8c0,1 -1,1 -1,1 0,0 0,1 -1,1l-20 22c-6,5 -3,2 -9,6l-19 17c0,0 0,1 -1,1 0,0 0,1 0,1 -1,0 -1,1 -1,1l-26 21c0,0 0,2 1,3 -1,0 -6,-1 -6,-1 -2,0 -3,1 -4,1 0,1 0,1 0,2l-21 19c-2,2 -8,8 -13,9 -16,3 -7,-2 -13,10 -3,5 -2,3 -7,7l-5 3c-1,0 -1,0 -1,0 -1,0 -1,0 -2,1 -2,0 0,0 -4,2 0,0 -3,2 -3,2l-44 27c-4,1 -4,-1 -8,3 -12,13 -8,5 -21,13l-24 14c0,0 -1,1 -1,1l-4 2c0,0 -1,0 -1,0l-20 10c0,0 -1,1 -1,1l-9 3c-1,1 -1,1 -2,1l-29 11c0,0 0,0 -1,1l-8 5c-1,0 -1,0 -2,0 0,0 -1,1 -1,1l-4 1c-4,2 -4,2 -8,4 -6,2 4,-2 -4,1l-5 3c-10,5 -11,1 -15,4l-26 9c-7,1 -3,0 -8,3l-41 12c-1,1 -4,2 -5,2l-12 4c-5,2 1,0 -4,1l-14 2c-5,2 -4,2 -9,4 -8,3 -5,-2 -14,0l-19 7c-12,5 -11,4 -18,-4l-5 8c-7,2 2,-2 -7,-1 -20,1 7,5 -12,5l-29 5c-6,-1 -14,-1 -17,-2l-5 0c0,0 -1,0 -1,0l-11 3c-1,0 -4,0 -6,0l-10 3c-1,0 -24,0 -25,0 -1,0 -1,-1 -1,-1l-11 1c-13,3 -7,-2 -18,0 -16,3 -9,-3 -24,-1 -4,1 1,0 -5,1l-56 0c-4,-2 -6,-3 -15,-3l-63 -7c-11,-2 -6,2 -13,-2 -11,-6 0,-6 -14,-4 -11,1 -5,2 -13,1l-6 -2c-5,-1 -1,0 -6,-1l-25 -4c-4,-1 -5,-3 -7,-4l-9 -3c0,0 -1,0 -1,0l-57 -14c-2,-5 5,-3 -2,-5l-30 -6c-1,-1 -1,-1 -2,-1l-34 -12c-22,-7 -10,-9 -23,-12 -1,0 -6,0 -10,-1 -7,-2 0,-1 -9,-4l-7 -4c0,0 -1,-1 -1,-1l-17 -8c-1,0 -1,0 -1,0l-60 -30c-8,-3 -7,-5 -12,-9 -1,0 -4,-2 -5,-3 -3,-2 -5,-3 -10,-5l-24 -11c-9,-4 -10,-10 -8,-18 -6,3 -4,2 -7,8 -6,-13 -1,-5 -8,-10l-35 -25c-7,-7 -7,-4 -13,-8 -7,-4 -3,-5 -9,-9 -5,-3 -2,2 -11,-5l-31 -29c-6,-8 -1,-4 -10,-11l-75 -73c-1,0 -1,-1 -1,-1l-8 -10c-2,-3 0,-1 -4,-6 -6,-8 -11,-10 -15,-16l-5 -6c0,0 -1,-1 -1,-1l-29 -37c-1,-1 -2,-6 -3,-10 0,0 5,0 -6,-5l-11 -14 8 -11c-26,0 -28,2 -35,22 -7,17 -13,21 -27,32 -20,16 -11,15 -38,21 -22,4 -1,15 -38,21 -8,1 -11,1 -14,16 -2,10 1,15 8,20 13,9 23,15 24,35 1,47 -15,58 -57,61 -4,-6 -6,-10 -10,-17 -21,0 -36,-4 -42,14 -5,13 0,39 -4,53 -5,21 -22,44 -19,64 5,35 -1,26 33,26 10,17 13,22 33,27 18,4 25,8 43,-6 6,-5 25,-23 28,-30 7,-14 8,-30 13,-46 7,-26 23,-17 32,-27 13,-12 1,-61 36,-49 11,4 9,7 21,4 9,-3 13,-5 19,-11 8,-7 9,-8 18,-14 36,8 20,22 29,45 4,11 44,42 55,54 9,10 13,28 -1,36 -13,7 -33,0 -34,22 19,4 16,17 37,17 13,-25 6,-14 28,-31 5,-4 8,-6 9,-13 1,-10 -1,-10 -4,-17 -10,-23 8,-2 13,-15 1,-3 0,-18 0,-22 -2,-1 -3,-2 -6,-4 -4,-1 -6,-2 -8,-3 -10,-8 -1,-7 -11,-14 -6,-6 -7,-2 -15,-7 -11,-6 -13,-18 -20,-27 -13,-13 -18,-32 -18,-53l20 0c1,5 5,30 7,32 8,12 14,-4 27,14 12,17 23,30 42,40 0,59 -3,42 19,71 12,16 3,19 10,34 5,13 12,20 27,20l6 -16c4,-7 33,-15 9,-46 -4,-5 -7,-7 -8,-14 -4,-31 34,-18 47,-12 0,60 10,50 28,72 7,7 9,12 16,18 9,-2 7,-4 17,-5 5,18 22,25 39,20 12,-4 9,-7 18,-14 34,-23 26,-5 30,13 3,13 7,8 -3,21 -11,15 -5,21 -5,39l-2 11c0,1 0,1 0,2 -9,27 -53,2 -66,12 -6,4 -6,11 -13,17 -25,-6 -24,-12 -54,-10 -14,1 -21,1 -31,-4 -14,-7 -9,-7 -18,-17 -11,-13 -34,-8 -48,2 -21,14 2,36 -28,43 -13,-9 -12,-19 -28,-22 -30,-4 -16,-2 -30,-20 -15,-18 -41,-9 -52,-24 -17,-22 -8,-16 -4,-30 2,-7 1,-14 1,-21 2,-15 6,-21 -5,-32 -11,-10 -22,-4 -35,-3 -14,1 -22,-6 -34,-7 -9,0 -26,4 -32,9 -10,8 -8,15 -26,16 -17,0 -24,1 -37,4 -5,1 -10,3 -14,6 -6,6 -7,13 -14,12l-20 -9c-10,-4 -17,-8 -28,-9 -16,5 -4,26 -34,43 -6,3 -12,6 -18,9z"/>
    <path class="fil3" d="M1197 2444c7,6 10,4 14,5 7,2 7,3 14,7 9,6 6,3 12,4 6,1 1,-3 5,3 4,7 -3,6 6,8 12,1 9,-4 16,-3 4,0 7,2 11,4 7,4 0,4 15,4l-3 8c10,-1 10,-3 12,-3l8 3c9,2 11,2 14,-3 6,-9 -2,3 1,-4l9 10c8,7 4,1 13,12 0,1 0,1 1,2 0,-2 -5,-13 15,-2l14 11c7,2 3,-1 10,0 9,0 13,6 21,1 5,11 -1,6 8,12 2,-4 4,-7 14,-6 1,0 1,0 2,0 0,0 1,1 1,1 0,0 1,0 1,0 0,0 1,1 1,1 10,4 7,1 13,2 7,2 1,-1 8,4 8,6 -1,2 11,0 -1,14 -6,7 3,10l0 -9 26 6c0,0 5,1 5,1l8 4c3,2 -1,1 4,1 3,0 -1,-4 11,0 15,5 5,-2 14,2 18,-5 63,-35 69,-54 7,-20 11,-60 4,-82 -6,-22 -12,9 -16,-46 -2,-26 -15,-22 17,-65 28,-38 19,-49 60,-65 23,-9 28,-2 31,-31 4,-33 11,-17 28,-33 7,-6 18,-29 23,-38 4,-8 6,-13 10,-22 5,-11 17,-23 24,-38 7,-16 8,-37 -16,-33 -7,1 -14,8 -21,11 -12,6 -10,0 -24,1 -18,1 -19,15 -52,12 -13,-1 -12,-5 -12,-19l-2 5c-28,0 -26,-11 -35,-12 -7,0 -1,2 -12,4 -10,-7 0,-9 -16,-9 -5,10 -3,0 -21,-5l-13 -4c-9,0 -2,5 -12,5 -2,0 -4,-1 -10,-2l8 -9c-8,2 -10,4 -17,7 -1,-6 0,-8 -2,-10 -4,-4 0,0 -2,0 0,0 -2,0 -2,0 -8,-1 -15,2 -18,-7l-9 0c-3,6 1,3 -6,5 -3,-6 -1,-4 -6,-8l-18 -9c0,13 0,6 -3,10l0 -13 -6 7c0,-1 -1,1 -1,1 -1,-13 1,-3 -4,-7 -7,-6 -4,-6 -10,-8l-3 10c-12,-5 -1,0 -4,-6 -1,-2 5,0 -4,-4l-9 -7c-4,5 -5,6 -10,9 1,-7 3,-5 -1,-9 -3,-4 1,0 -3,-2 0,0 -2,0 -3,-1l-5 -2c0,0 -1,0 -1,-1l-4 -2c-1,-1 -1,-1 -2,-1 -2,-3 0,-1 -3,-4 0,14 0,7 -3,10 -7,-14 -8,-11 -17,-12l-15 -3c0,0 -1,0 -1,0l-2 -2c-1,0 -1,0 -1,0l-36 -19c-22,-6 -12,6 -25,-11l-9 0c0,-1 -1,0 -1,1l-2 -4c0,-1 0,-1 0,-2 -5,-9 -3,-3 -9,-6 -11,-7 10,8 -3,-3 -3,-2 7,1 -2,-1 -11,-2 8,0 -3,0 -5,1 -7,-2 -13,-5 -14,-7 -8,7 -17,-1 -4,-4 -2,2 -1,-10 -16,-4 -9,-4 -19,-10 -5,-3 -8,0 -9,0 -14,9 12,-3 -4,2l-7 -10c-8,-7 -6,0 -13,-6l-18 -14c-1,-1 -3,-2 -5,-3 -6,-5 -7,-5 -11,-4 -3,1 -1,4 -4,3l-1 -4c-2,-11 -18,-16 -19,-16 -12,-7 -7,8 -9,0 0,0 -1,1 -1,0l-6 -12c-1,8 1,5 -5,6l-7 -3c-5,-4 -9,-6 -11,-12 -1,-1 -1,-3 -1,-4 -2,-5 3,-1 -2,-4 -6,-5 0,-1 -10,5 0,-16 -6,-17 -17,-24l-12 -8c-8,-3 2,1 -4,-1l-6 -5c-4,-3 -8,-2 -12,-4 7,-2 3,0 7,-5 -9,-2 -9,-3 -14,-1 0,0 -1,1 -1,1 0,-1 -1,0 -2,0 6,-16 -15,-17 -21,-26 0,0 0,-1 0,-2 0,0 0,-1 0,-1 -14,4 7,-2 -8,7 -1,-12 -6,-15 -10,-19 -15,-12 -10,-6 -12,-12 -11,-3 -18,-15 -27,-23 -4,9 7,4 -5,8 -12,-13 2,-10 -12,-23l-7 -3c0,0 0,10 -2,1 0,-1 -1,0 -1,0 -3,-9 -8,-10 -14,-16 0,0 0,-1 -1,-1l-17 -24c-4,4 -4,7 -8,4 -4,-2 -3,-7 -4,-10l-5 -14c-12,7 -9,6 -15,-5 -15,9 -17,13 -17,49 1,35 3,29 -17,48 -41,38 -38,1 -46,53 -2,16 -2,14 -11,23 -9,9 -28,46 -21,71 5,17 18,68 10,82 -11,17 -10,32 -6,57 6,45 57,78 59,104 2,13 1,20 8,27l40 27c54,44 30,30 84,12 17,-5 47,2 64,-3 23,-6 -2,-14 54,-14 12,17 7,27 30,35 17,5 12,2 24,-3 24,-9 39,31 31,60 -8,28 -30,12 8,64 19,27 8,13 33,30 22,14 21,58 27,71 13,31 7,18 5,35 -1,5 -1,12 -1,17z"/>
    <path class="fil4" d="M53 1581c-4,4 -3,-5 -3,5 -8,-2 2,1 -4,-3 -4,-2 0,0 -5,-1 3,-5 3,-6 5,-11 -12,-6 -6,1 -9,-8 -11,-29 -8,-16 -11,-32l-2 -6c-1,8 -2,10 -3,18 0,6 0,12 -1,18l-1 189c2,10 4,22 6,34 1,10 13,58 16,62 9,8 9,-5 18,21 10,33 18,15 26,53 3,14 7,14 11,28 4,12 4,19 7,32 5,18 9,6 17,23 5,12 5,17 16,25 4,-4 6,-6 8,-13 9,7 11,28 14,40 2,14 11,34 12,41 1,16 -4,29 1,49 2,9 4,13 3,21 -2,5 -7,3 1,21 19,41 8,11 13,41 5,27 28,43 40,71 7,16 8,24 18,38 16,21 43,71 54,81 6,5 9,6 15,12 6,6 7,9 12,15 20,23 16,10 37,46 17,28 47,86 61,105 12,15 27,32 33,48 8,18 46,58 60,78 16,26 84,95 109,111 15,9 31,32 57,51 11,9 20,15 30,24 6,5 9,7 16,11l68 42c7,4 12,6 19,10 12,8 61,37 76,29 -4,-14 -20,-15 -33,-22 -39,-21 -74,-42 -104,-73 -11,-10 -19,-16 -33,-24 -13,-7 -22,-16 -31,-28 -12,-16 -26,-26 -36,-37 -11,-13 -1,-15 -17,-26 3,-12 5,-4 4,-17 0,-11 -15,-32 -26,-40 14,-21 -9,-32 -10,-51 11,-6 -1,-15 -3,-21 -8,-19 7,-14 -11,-44 -7,-11 -17,-24 -15,-37 2,-12 5,-17 18,-15 17,3 16,2 17,-16 2,-20 -11,-39 -7,-62 2,-14 0,-18 -5,-27 -5,-9 -8,-14 -13,-24 -26,-51 25,-12 -4,-114 -16,-59 -24,-28 -53,-55 -22,-21 -10,-15 -44,-26 -13,-5 -13,-6 -23,-14 -14,-10 -50,-35 -61,-47 -8,-8 -8,-13 -12,-25 -3,-7 -5,-17 -9,-25 -31,-74 -23,-36 -57,-53 -31,-16 -45,-59 -61,-84 -27,0 -23,11 -37,15 -26,-17 -39,-72 -49,-29 -11,-4 -1,-7 -15,-8 -4,7 -6,12 -7,22l-5 0c-5,-20 -13,-4 -24,-12 -17,-14 -18,-87 -21,-106 -8,-44 -26,-1 -26,-58 0,-11 -1,-32 0,-41 2,-10 5,-9 4,-17 0,-4 -4,-12 -7,-16 -15,0 -19,0 -19,42 -9,-2 -9,-6 -10,-17 -1,-10 -2,-16 -3,-26 -3,-20 -2,-90 -2,-111 0,-18 9,-37 10,-50z"/>
    <path class="fil3" d="M183 1300l3 -10 4 0c-1,13 2,6 -7,10zm-12 -56c2,-2 2,-4 9,7 -5,11 1,4 -9,10 0,-4 -1,-7 -1,-10 0,-1 0,-3 0,-4l1 -3zm-5 -67l9 -7c0,15 3,20 -7,27 0,-11 1,-12 -2,-20zm90 -115c2,-6 3,-10 5,-15l8 -12c-1,12 -6,22 -13,27zm-232 463l2 6c3,16 0,3 11,32 3,9 -3,2 9,8 -2,5 -2,6 -5,11 5,1 1,-1 5,1 6,4 -4,1 4,3 0,-10 -1,-1 3,-5 9,-2 3,-3 8,5 1,2 0,4 9,10 3,-6 4,-13 7,-19 22,6 23,26 23,54 -1,11 5,63 7,68 9,-2 5,-2 12,-7 0,-14 2,-22 3,-32 1,-28 -9,-37 0,-98 7,-50 6,-27 23,-47 34,-39 23,-71 23,-80 1,-10 3,-22 10,-27 7,-5 5,1 16,-18 4,-8 7,-18 10,-27 12,-39 6,11 31,-40 15,-30 9,-32 36,-38 -4,16 0,17 15,13 9,-2 22,-8 27,-12l16 -24c9,-17 -4,-14 -19,-14 -15,-66 15,-43 11,-67 -1,-14 -6,-11 -16,-16 9,-12 16,-15 34,-9 26,10 19,-1 37,-6 -1,19 -8,3 -20,36 -14,35 -17,20 -11,43 15,3 7,1 22,0 0,11 -2,8 6,13 9,6 8,-5 8,11 20,0 13,-11 17,-27 4,-15 5,-23 5,-41 -6,-5 -7,-4 -14,-8 0,-25 10,-16 13,-38 1,-13 1,-6 14,-32 21,-38 9,-23 7,-60 0,-11 4,-11 2,-24 -1,-19 -10,-5 2,-40 5,-14 12,-23 16,-35 5,-12 6,-30 9,-43 4,-11 12,-26 13,-39 -16,-3 -17,6 -27,23 -7,12 -13,22 -27,26 2,-22 17,-36 27,-51 9,-13 0,-15 3,-31 3,-15 6,-15 6,-35l-24 -10c-14,1 -24,26 -28,38 -3,8 -3,8 -7,15 -23,39 -33,30 -48,84 -9,29 -30,61 -57,78 1,-8 5,-12 2,-20 -3,-8 -8,-6 -8,-16 0,-4 3,-13 4,-20 1,-15 -2,-12 -5,-22l42 -76 38 -50c8,-8 8,-6 13,-17l-10 -4c-15,-4 6,-7 -11,-18 14,-14 3,0 7,-12 -12,4 -4,4 -7,3l0 -7c-18,10 -104,141 -116,159l-94 183c-7,17 -13,31 -20,48 -41,101 -72,219 -87,328 -2,18 -7,45 -7,63z"/>
    <path class="fil1" d="M969 540c0,-6 4,0 2,0 0,0 -2,7 -2,0zm27 -218c5,-6 3,-6 13,-7 -5,6 -4,5 -13,7zm25 -12c10,-2 7,-5 19,-5 -3,4 -4,6 -10,8 -7,2 -6,2 -9,-3zm-115 110c9,4 0,-1 6,1 0,0 1,0 1,0l5 2c-5,9 4,-10 0,7l-4 26c0,0 0,1 0,1 0,0 -1,1 -1,1l0 7c0,10 -4,12 -6,40l-1 7c0,0 0,0 0,1l0 2c-3,11 0,5 5,16l-8 6c3,12 6,-8 3,17l-1 5c-7,17 1,19 0,30l0 11c0,3 -3,15 -3,33 0,6 2,9 -1,15 10,-3 20,-16 34,-24 21,-13 27,-14 34,-27 -5,-10 -5,-14 -19,-15 0,-7 2,-22 13,-16 7,4 1,10 14,18 23,-5 25,-37 33,-52 5,-11 2,-4 11,-11 5,-4 7,-7 10,-12 3,-5 6,-8 9,-14 3,-7 2,-10 5,-16 9,1 14,5 22,-1 8,-5 4,-9 3,-19 18,5 6,3 22,-7 5,-4 3,-1 8,-4 13,-7 12,-21 20,-30 0,0 0,0 1,-1l4 -3c16,-9 7,-5 19,-18 5,-5 8,-6 11,-14 5,-12 -1,-6 3,-16 27,-6 23,3 41,-17 7,-7 7,-13 13,-17 9,-8 8,0 15,-14 7,-16 36,-30 52,-37 10,-4 11,-7 19,-12 8,-5 12,-6 20,-10 57,-27 61,-29 123,-53 20,-8 18,-2 21,-11 -18,-9 -152,12 -180,16 -22,3 -38,8 -58,11 -38,6 -53,17 -81,15 -8,0 -68,18 -80,22 -23,7 -30,15 -50,19 0,18 -1,13 -15,19 -45,18 -22,7 -40,9 -6,0 -10,3 -15,5 -15,4 -8,-5 -28,4 -36,16 -55,19 -89,38 -6,4 -6,5 -11,8 2,8 0,6 7,8 0,18 -22,25 -12,34 8,8 36,-3 43,-6 9,-6 43,-25 48,-33 7,-8 3,0 2,-11 -1,-10 12,-13 18,-12 10,3 11,8 25,4 15,-5 31,-15 43,-18 -12,18 -44,14 -44,39 14,0 9,-4 22,-5 -1,18 -5,4 -30,29l-31 30z"/>
    <path class="fil4" d="M1535 2540c-9,-4 1,3 -14,-2 -12,-4 -8,0 -11,0 -5,0 -1,1 -4,-1l-8 -4c0,0 -5,-1 -5,-1l-26 -6 0 9c-9,-3 -4,4 -3,-10 -12,2 -3,6 -11,0 -7,-5 -1,-2 -8,-4 -6,-1 -3,2 -13,-2 0,0 -1,-1 -1,-1 0,0 -1,0 -1,0 0,0 -1,-1 -1,-1 -1,0 -1,0 -2,0 -10,-1 -12,2 -14,6 -9,-6 -3,-1 -8,-12 -8,5 -12,-1 -21,-1 -7,-1 -3,2 -10,0l-14 -11c-20,-11 -15,0 -15,2 -1,-1 -1,-1 -1,-2 -9,-11 -5,-5 -13,-12l-9 -10c-3,7 5,-5 -1,4 -3,5 -5,5 -14,3l-8 -3c-2,0 -2,2 -12,3l3 -8c-15,0 -8,0 -15,-4 -4,-2 -7,-4 -11,-4 -7,-1 -4,4 -16,3 -9,-2 -2,-1 -6,-8 -4,-6 1,-2 -5,-3 -6,-1 -3,2 -12,-4 -7,-4 -7,-5 -14,-7 -4,-1 -7,1 -14,-5 -5,10 -9,33 -10,47 -1,55 25,45 38,80 4,14 14,27 19,40 6,14 -1,43 24,61 9,7 10,3 16,14 33,57 9,46 19,64 2,2 12,12 15,14 21,15 58,-1 71,-3 25,-4 29,8 63,-26 34,-34 17,-38 36,-52 25,-19 6,-28 16,-42 6,-8 44,-8 25,-70 -6,-18 -5,-16 6,-31z"/>
    <path class="fil4" d="M2692 2390c-36,-3 10,-41 10,-59 0,-17 -40,-16 -66,35 -10,-4 0,0 -7,-4 -4,-2 -2,-2 -6,-4l-10 7c-3,3 -7,7 -10,10l-10 19c-7,12 -8,4 -17,13 -3,4 -3,7 -7,12 -7,8 -14,10 -21,18 -8,10 -5,15 -16,23 -40,31 -57,15 -89,66 -5,9 -11,16 -15,24 -6,13 1,21 -6,33 -2,3 -6,7 -9,11 -3,4 -5,8 -8,12 -26,43 5,19 -38,79 0,1 -20,24 -6,24 15,0 23,-10 33,-16 28,-16 10,10 49,-25 12,-12 18,-9 35,-14 8,-2 10,-4 18,-6 -1,11 -7,15 -7,27 0,3 2,1 4,9 -44,51 -17,56 2,41 19,-15 15,-7 26,-18l85 -92c16,-16 68,-89 73,-105l23 -68c17,-34 3,-9 17,-49 6,-15 11,-22 12,-32 3,-37 23,-70 4,-58 -5,2 -7,7 -9,11l-22 51c-4,8 -11,20 -12,25z"/>
    <path class="fil2" d="M538 572c3,-9 24,-22 32,-27 -3,12 -20,26 -32,27zm81 -68c2,-10 10,-14 20,-15 -5,6 -14,10 -20,15zm-271 240l0 7c3,1 -5,1 7,-3 -4,12 7,-2 -7,12 17,11 -4,14 11,18l10 4c16,-8 32,-31 44,-38 0,7 -7,24 6,20 7,-2 4,-5 10,-7 6,-2 6,1 16,1 28,-41 18,-35 25,-53 17,-38 9,-20 25,-26 5,-2 10,-9 14,-13 7,-6 9,-6 16,-11l66 -66c23,-23 28,-49 5,-30 -7,5 -8,9 -16,11 5,-11 9,-13 17,-22 6,-5 16,-14 22,-18 0,43 2,21 7,37 -5,4 -8,7 -12,13 -7,11 -1,5 -10,14 -20,18 6,22 -20,21 -25,-2 -55,49 -16,31 -5,15 -26,12 -47,51 -20,0 -24,1 -35,12 -9,8 -16,14 -16,30 7,3 7,3 14,7 -2,9 -22,23 -14,66 3,16 10,12 14,13 3,-6 4,-16 5,-23 16,2 22,1 38,-26 26,-44 6,-26 18,-49 6,2 3,1 10,12 14,-3 12,-11 40,-32 12,-10 34,-40 37,-51 4,-14 -9,-17 5,-39 5,-9 10,-13 19,-18 5,-2 7,-2 10,-7 4,-6 1,-7 7,-12 7,-6 11,-3 18,-17 5,-10 -2,-3 6,-10 25,-22 3,-14 23,-34 13,-13 1,-11 13,-24 8,-8 12,-6 18,-16 9,-12 3,-13 18,-19 17,-6 34,-20 34,-40 -7,-3 -9,-1 -13,-7 -6,-9 2,-3 -2,-12 -22,-12 -18,-1 -35,3 -10,3 -12,0 -21,4 -17,7 -91,58 -106,69 -27,20 -59,42 -82,66 -10,11 -12,8 -27,22 -6,5 -8,6 -14,11l-38 36c-9,9 -16,17 -25,26 -10,9 -16,15 -24,25l-46 52c-8,8 -19,20 -22,29z"/>
    <path class="fil2" d="M901 648c3,-6 1,-9 1,-15 0,-18 3,-30 3,-33l0 -11c1,-11 -7,-13 0,-30l1 -5c3,-25 0,-5 -3,-17l8 -6c-5,-11 -8,-5 -5,-16l0 -2c0,-1 0,-1 0,-1l1 -7c2,-28 6,-30 6,-40l0 -7c0,0 1,-1 1,-1 0,0 0,-1 0,-1l4 -26c4,-17 -5,2 0,-7l-5 -2c0,0 -1,0 -1,0 -6,-2 3,3 -6,-1 -17,6 -67,62 -88,79 -5,4 -10,7 -16,11 -8,5 -11,7 -11,18l9 3c-2,27 -20,2 -30,20 -5,8 0,8 -8,12 -4,2 -29,4 -38,41 7,3 3,2 13,2 -3,11 -5,9 -14,13 -14,8 -6,9 -13,15 -2,2 -13,5 -18,9 -11,8 -17,19 -23,31 -8,18 -18,10 -31,50 -4,13 -16,21 -20,34 -2,7 1,2 -1,7 -2,5 -9,14 -14,26 -4,9 -3,13 -5,22 -3,10 -18,38 -18,65 7,4 11,1 15,7 6,9 -9,31 5,34 18,5 21,-28 30,-40 6,-8 12,-5 21,-25 8,-17 4,-15 18,-29 16,-16 5,-18 29,-39l31 -40c15,1 7,10 24,-1 15,-10 49,-32 59,-46 6,-8 9,-11 16,-18 6,-7 10,-14 19,-15 15,-3 42,-9 54,-18z"/>
    <path class="fil2" d="M955 1077l0 -10 5 0c-1,13 -5,9 -5,10zm-8 -59c0,25 17,19 -13,44 -9,7 -16,6 -24,17 -4,7 0,5 -7,12 -5,5 -8,4 -13,10 -7,10 -1,21 -1,35 0,2 -5,5 -7,8 -2,4 -12,33 4,33 23,0 18,-3 31,-12 15,-10 17,6 24,-33 7,-35 -8,-1 19,-40 5,2 6,2 10,4 10,4 12,1 7,23 -18,0 -22,3 -24,17 -3,18 2,9 -8,21 -10,11 -5,17 10,18 -4,15 -17,10 -17,32 0,14 10,4 14,2 11,-5 12,-1 25,-2 21,-3 -1,-12 41,-12 45,-67 8,-73 3,-81 -9,-13 1,-27 -12,-45 -4,-6 -3,-4 -5,-12 -3,-6 -4,-8 -5,-14 25,-39 26,-38 0,-52 2,-8 8,-22 -12,-22 -17,0 -16,12 -23,22 -6,10 -17,13 -17,27z"/>
    <path class="fil3" d="M2572 2118c-16,-1 -21,-15 -29,8 -8,24 -30,39 -30,46 0,14 7,26 7,42 1,29 6,13 30,12l2 5c6,10 8,16 19,4 20,-24 39,-66 45,-70 0,25 -17,27 -17,54 0,9 5,1 5,24 7,-2 9,-4 12,-5 12,-4 3,10 23,-1 15,-9 9,-10 5,-19 -6,-10 -7,-18 -3,-33 5,-14 5,-7 11,-16 10,-17 -6,-8 6,-16 5,-4 11,-4 15,-13 9,-19 -30,-9 -34,-8 -13,4 -13,16 -13,-19 0,-19 13,-29 12,-43 -1,-5 -4,-23 -9,-26 -8,-4 -19,14 -24,21 -5,6 -10,11 -14,16 -6,8 -14,27 -19,37z"/>
    <path class="fil3" d="M1636 2628c0,8 27,5 42,5 12,0 11,-20 16,-30 7,-15 23,-12 23,-27 0,-26 -17,-13 14,-49 13,-15 8,-30 10,-63 3,-32 -3,-18 -5,-42 -25,1 -19,32 -35,43 -9,7 -15,7 -24,15 -12,11 -30,32 -31,50 -2,23 4,18 -7,35 -8,11 -9,14 -5,28 6,22 2,15 2,35z"/>
    <path class="fil3" d="M2381 2106c7,29 31,21 34,93 1,17 16,29 22,42 8,14 0,30 30,37 -1,1 -12,33 23,28 23,-4 18,6 38,6 10,0 10,-5 17,-5 18,0 -1,15 44,5 -1,-12 -4,-11 -12,-15 -6,-3 -13,-8 -19,-10 -10,-4 -18,0 -27,-3 -19,-5 3,-14 -37,-8 -3,-11 -5,-11 -18,-11l6 -26c1,-10 5,-17 -3,-25 -6,-7 -12,-6 -14,-18 -4,-20 6,-8 -18,-46 -4,-6 -42,-49 -49,-49 -6,0 -13,3 -17,5z"/>
    <path class="fil2" d="M901 739c4,-16 3,-5 0,-20 -16,-3 -15,-1 -25,9 -9,9 -29,27 -7,33 0,22 -15,26 -20,46 5,8 24,23 32,27 15,-8 12,-12 21,-18 33,-17 33,4 49,-32 4,-9 13,-15 21,-21 -1,-12 -9,-44 -15,-54 -19,5 -35,29 -56,30z"/>
    <path class="fil1" d="M1655 364c-15,10 -18,4 -23,13 -10,19 -7,41 -8,44 -1,10 -3,3 -3,14 0,10 12,18 12,27 0,29 -6,55 2,79 3,9 25,35 28,36 9,5 10,-2 15,-2 12,0 29,10 4,-25 -24,-34 -14,-77 -17,-113 0,-7 -4,-21 -3,-26 1,-8 25,-25 25,-40 0,-8 -25,-49 -35,-28 -4,9 2,9 3,21z"/>
    <path class="fil3" d="M2773 2243c-1,13 2,5 -5,8 0,-1 1,-2 1,-2l4 -6zm-37 -73c2,-17 7,-25 -5,-25 -28,0 -16,31 -16,31 3,12 -6,15 4,35 9,0 6,-2 17,-2 1,13 4,12 0,27 -4,15 -18,26 -3,35 1,0 13,4 13,4 11,3 16,1 19,-12l5 0c0,11 3,28 16,20 5,-4 5,-27 7,-35 1,-11 6,-26 7,-34 0,-6 -3,-33 -5,-37 -7,-10 -11,-2 -17,-12 -4,-7 -2,-17 -9,-20 -8,-4 -18,21 -33,25z"/>
    <path class="fil1" d="M1374 308c-19,27 0,11 -17,36 3,8 4,16 7,22 19,-1 14,-19 29,-37 10,-12 5,-4 11,-20 5,-14 14,-11 14,-24 0,-10 -5,-7 -1,-12 8,-7 -4,3 15,3 11,0 31,-40 13,-40 -24,0 -17,4 -27,11 -8,5 -22,6 -30,13 -6,6 -9,16 -13,24 -6,10 -15,20 -1,24z"/>
    <path class="fil1" d="M1550 212c8,12 37,19 53,25 11,5 16,9 27,13 11,4 11,2 22,7 4,3 2,2 6,4 34,16 51,14 61,18 11,5 38,32 49,27 7,-4 1,-8 -1,-11l-8 -12c-11,-13 -62,-24 -84,-34 -41,-19 -27,-5 -59,-20 -6,-3 -61,-26 -66,-17z"/>
    <path class="fil2" d="M2667 1829c0,11 2,23 -1,33 -4,22 -6,10 -6,41 0,13 5,36 17,36 14,0 3,-2 3,-41 0,-8 8,-22 10,-31 3,-10 6,-28 7,-38 -19,-13 -18,-8 -30,0z"/>
    <path class="fil4" d="M87 1741c0,14 2,15 20,15l12 32c8,22 7,29 20,29 21,0 1,-24 -8,-54 -4,-14 -14,-32 -24,-39 -8,2 -20,8 -20,17z"/>
    <path class="fil3" d="M2670 2020c0,14 1,2 7,17 5,12 3,17 17,20 9,-15 0,-8 11,-21 10,-13 14,-36 4,-50 -15,1 -8,7 -23,14 -2,1 -16,3 -16,20z"/>
    <path class="fil1" d="M1996 334c-5,6 1,9 13,17 100,65 85,10 41,-5 -10,-3 -47,-19 -54,-12z"/>
    <path class="fil4" d="M151 1841c0,21 44,32 44,-5 0,-3 -3,-4 -6,-6 -6,-4 -2,2 -9,-5 -5,-5 -6,-13 -14,-13 -10,0 -15,20 -15,29z"/>
    <path class="fil3" d="M2614 2312c0,8 5,10 12,10 8,0 9,-10 14,-15 10,-11 15,-2 15,-20 0,-6 -4,-9 -9,-8 -5,0 -9,6 -12,9 -9,7 -20,7 -20,24z"/>
    <path class="fil4" d="M2410 2799c20,0 20,-7 32,-17 39,-30 14,-40 -9,-12 -9,11 -21,11 -23,29z"/>
   </g>
   <g>
    <path class="fil5" d="M1834 1c-64,5 -120,20 -176,48 -167,81 -271,254 -266,440 2,69 17,132 47,192 12,26 21,41 38,66 7,11 98,157 201,324 104,168 189,304 189,304 1,0 86,-136 190,-304 103,-167 194,-313 201,-324 17,-25 26,-40 38,-66 48,-99 60,-214 32,-323 -28,-110 -94,-206 -188,-272 -80,-56 -178,-87 -275,-86 -11,0 -25,1 -31,1l0 0z"/>
    <path class="fil6" d="M1906 203c51,10 94,31 129,66 88,88 94,227 15,323 -39,46 -94,76 -154,83 -13,2 -44,2 -57,0 -98,-12 -177,-82 -202,-177 -16,-62 -6,-130 28,-185 38,-61 99,-100 171,-111 15,-2 56,-1 70,1l0 0z"/>
   </g>
   <g>
    <path class="fil7" d="M515 1358c-64,6 -120,21 -175,48 -167,82 -272,255 -267,440 3,69 18,132 47,193 12,25 21,40 38,66 7,11 98,157 202,324 103,167 188,304 189,304 0,0 85,-137 189,-304 104,-167 194,-313 202,-324 17,-26 25,-41 38,-66 48,-100 59,-215 32,-324 -28,-110 -95,-205 -188,-271 -80,-57 -178,-87 -276,-87 -11,0 -25,1 -31,1l0 0z"/>
    <path class="fil6" d="M588 1561c50,9 93,31 128,66 88,87 95,227 15,322 -38,46 -94,76 -154,83 -13,2 -43,2 -56,0 -98,-12 -178,-82 -203,-177 -16,-62 -6,-130 28,-185 38,-60 99,-100 172,-110 15,-3 55,-2 70,1l0 0z"/>
   </g>
   <g>
    <path class="fil8" d="M2498 1705c-43,3 -81,13 -119,32 -114,55 -185,173 -181,300 1,47 11,90 31,131 9,17 15,27 26,45 5,7 67,107 138,220 70,114 128,207 128,207 1,0 59,-93 129,-207 71,-113 132,-213 137,-220 12,-18 18,-28 26,-45 33,-68 41,-146 22,-220 -19,-75 -64,-141 -128,-185 -54,-39 -121,-60 -188,-59 -7,0 -16,0 -21,1l0 0z"/>
    <path class="fil6" d="M2548 1842c34,7 63,21 87,45 60,60 65,155 10,220 -26,31 -63,51 -104,56 -9,2 -30,2 -39,0 -66,-8 -121,-55 -138,-120 -11,-43 -4,-89 19,-126 26,-41 68,-68 117,-75 10,-2 38,-2 48,0l0 0z"/>
   </g>
  </g>
 </g>
</svg>
